<?xml version="1.0" standalone="no"?>
<!DOCTYPE svg PUBLIC "-//W3C//DTD SVG 20010904//EN"
 "http://www.w3.org/TR/2001/REC-SVG-20010904/DTD/svg10.dtd">
<svg version="1.0" xmlns="http://www.w3.org/2000/svg"
 width="128.000000pt" height="128.000000pt" viewBox="0 0 128.000000 128.000000"
 preserveAspectRatio="xMidYMid meet">
<metadata>
Created by potrace 1.11, written by Peter Selinger 2001-2013
</metadata>
<g transform="translate(0.000000,128.000000) scale(0.100000,-0.100000)"
fill="#000000" stroke="none">
<path d="M478 1184 c-126 -30 -285 -139 -333 -228 -13 -23 -27 -36 -40 -36
-54 0 -65 -10 -65 -56 0 -31 4 -44 14 -44 12 0 13 -22 9 -132 -4 -104 -2 -147
10 -195 52 -199 203 -345 412 -398 76 -19 234 -19 310 0 163 41 300 147 368
283 50 101 61 163 54 315 -5 106 -3 127 9 127 10 0 14 13 14 44 0 46 -11 55
-65 56 -13 0 -30 16 -48 45 -60 95 -197 186 -332 220 -73 19 -239 18 -317 -1z
m361 -47 c39 -14 94 -39 121 -57 47 -30 150 -133 150 -149 0 -4 -106 -10 -235
-14 -261 -6 -705 2 -705 13 0 4 13 23 29 43 69 88 180 154 302 182 94 22 248
13 338 -18z m-165 -352 c8 -8 20 -39 26 -69 16 -76 56 -128 126 -162 49 -24
70 -28 143 -28 106 0 156 22 196 86 l27 43 -6 -71 c-22 -267 -222 -453 -509
-470 -169 -11 -314 38 -428 143 -95 88 -144 192 -155 327 l-6 71 27 -43 c40
-64 90 -86 196 -86 73 0 94 4 143 28 70 34 110 86 126 162 16 78 56 107 94 69z"/>
<path d="M417 494 c-17 -17 -5 -57 25 -85 45 -41 126 -69 198 -69 113 0 235
68 228 128 -3 31 -16 32 -107 13 -29 -6 -86 -11 -125 -11 -65 1 -91 4 -181 25
-17 3 -33 3 -38 -1z"/>
</g>
</svg>
